<?xml version="1.0" encoding="UTF-8" standalone="no"?>
<svg
   width="318.51184"
   zoomAndPan="magnify"
   viewBox="0 0 238.88388 171.25309"
   height="228.33746"
   preserveAspectRatio="xMidYMid meet"
   version="1.0"
   id="svg1428"
   sodipodi:docname="Logo.svg"
   inkscape:version="1.1.2 (b8e25be8, 2022-02-05)"
   xmlns:inkscape="http://www.inkscape.org/namespaces/inkscape"
   xmlns:sodipodi="http://sodipodi.sourceforge.net/DTD/sodipodi-0.dtd"
   xmlns="http://www.w3.org/2000/svg"
   xmlns:svg="http://www.w3.org/2000/svg">
  <sodipodi:namedview
     id="namedview1430"
     pagecolor="#ffffff"
     bordercolor="#666666"
     borderopacity="1.0"
     inkscape:pageshadow="2"
     inkscape:pageopacity="0.0"
     inkscape:pagecheckerboard="0"
     showgrid="false"
     fit-margin-top="0"
     fit-margin-left="0"
     fit-margin-right="0"
     fit-margin-bottom="0"
     inkscape:zoom="0.65562429"
     inkscape:cx="180.74376"
     inkscape:cy="124.309"
     inkscape:window-width="1312"
     inkscape:window-height="847"
     inkscape:window-x="0"
     inkscape:window-y="25"
     inkscape:window-maximized="0"
     inkscape:current-layer="svg1428" />
  <defs
     id="defs1144">
    <g
       id="g1136" />
    <clipPath
       id="951fc9a6db">
      <path
         d="M 119.30859,140 H 188 v 60 h -68.69141 z m 0,0"
         clip-rule="nonzero"
         id="path1138" />
    </clipPath>
    <clipPath
       id="d0a3428d37">
      <path
         d="m 187,108.51953 h 68.80859 V 169 H 187 Z m 0,0"
         clip-rule="nonzero"
         id="path1141" />
    </clipPath>
  </defs>
  <g
     clip-path="url(#951fc9a6db)"
     id="g1148"
     transform="translate(-68.429252,-108.54688)">
    <path
       fill="#0652e9"
       d="m 165.26953,182.49219 v 8.28515 l -37.625,-17.42578 v -6.72265 l 37.625,-17.42579 v 8.28516 l -28.45312,12.42188 v 0.15625 z M 187.61719,140 h -62.92578 c -2.96875,0 -5.37891,2.40234 -5.37891,5.36328 v 49.25391 c 0,2.96093 2.41016,5.36328 5.37891,5.36328 h 45.45703 L 187.61719,140"
       fill-opacity="1"
       fill-rule="nonzero"
       id="path1146" />
  </g>
  <g
     clip-path="url(#d0a3428d37)"
     id="g1152"
     transform="translate(-68.429252,-108.54688)">
    <path
       fill="#62e1e9"
       d="m 247.48828,142.13281 -37.625,17.19141 v -8.28516 l 29.08203,-12.42578 v -0.15625 L 209.86328,126.03516 V 117.75 l 37.625,17.19141 z m -42.40234,-33.58593 -17.46875,59.98046 h 62.82031 c 2.97266,0 5.37891,-2.40234 5.37891,-5.36328 v -49.2539 c 0,-2.96094 -2.40625,-5.36328 -5.37891,-5.36328 h -45.35156"
       fill-opacity="1"
       fill-rule="nonzero"
       id="path1150" />
  </g>
  <g
     fill="#ffffff"
     fill-opacity="1"
     id="g1160"
     transform="translate(-68.429252,-108.54688)">
    <g
       transform="translate(66.362846,236.78486)"
       id="g1158">
      <g
         id="g1156">
        <path
           d="m 13.019531,-8.644531 c 2.484375,-0.734375 4.234375,-3.042969 4.234375,-5.914063 C 17.253906,-18.128906 14.59375,-21 10.988281,-21 H 2.066406 V 0 H 6.683594 V -8.121094 H 8.539062 L 13.71875,0 h 5.179688 z m -2.730469,-3.289063 H 6.683594 v -4.96875 h 3.605468 c 1.46875,0 2.554688,1.046875 2.554688,2.484375 0,1.46875 -1.085938,2.484375 -2.554688,2.484375 z m 0,0"
           id="path1154" />
      </g>
    </g>
  </g>
  <g
     fill="#ffffff"
     fill-opacity="1"
     id="g1168"
     transform="translate(-68.429252,-108.54688)">
    <g
       transform="translate(86.317254,236.78486)"
       id="g1166">
      <g
         id="g1164">
        <path
           d="m 10.675781,0.28125 c 4.96875,0 8.746094,-3.046875 8.746094,-7 V -21 h -4.617187 v 13.40625 c 0,2.132812 -1.785157,3.777344 -4.128907,3.777344 -2.3125,0 -4.097656,-1.644532 -4.097656,-3.777344 V -21 H 1.960938 v 14.28125 c 0,3.953125 3.8125,7 8.714843,7 z m 0,0"
           id="path1162" />
      </g>
    </g>
  </g>
  <g
     fill="#ffffff"
     fill-opacity="1"
     id="g1176"
     transform="translate(-68.429252,-108.54688)">
    <g
       transform="translate(108.93129,236.78486)"
       id="g1174">
      <g
         id="g1172">
        <path
           d="m 14.699219,-10.640625 c 1.574219,-0.839844 2.589843,-2.308594 2.589843,-4.511719 C 17.289062,-18.863281 14.488281,-21 10.953125,-21 H 2.066406 V 0 h 9.691406 c 3.5,0 6.230469,-2.03125 6.230469,-5.738281 0,-2.554688 -1.328125,-4.128907 -3.289062,-4.902344 z m -2.03125,-4.023437 c 0,1.226562 -1.015625,2.273437 -2.273438,2.273437 H 6.683594 v -4.511719 h 3.710937 c 1.257813,0 2.273438,0.980469 2.273438,2.238282 z M 11.09375,-4.09375 H 6.683594 v -4.515625 h 4.410156 c 1.296875,0 2.273438,1.050781 2.273438,2.273437 0,1.261719 -0.976563,2.242188 -2.273438,2.242188 z m 0,0"
           id="path1170" />
      </g>
    </g>
  </g>
  <g
     fill="#ffffff"
     fill-opacity="1"
     id="g1184"
     transform="translate(-68.429252,-108.54688)">
    <g
       transform="translate(129.16567,236.78486)"
       id="g1182">
      <g
         id="g1180">
        <path
           d="M 14.875,-16.9375 V -21 H 2.238281 V 0 H 14.875 V -4.058594 H 6.859375 V -8.46875 h 6.859375 v -4.058594 H 6.859375 V -16.9375 Z m 0,0"
           id="path1178" />
      </g>
    </g>
  </g>
  <g
     fill="#ffffff"
     fill-opacity="1"
     id="g1192"
     transform="translate(-68.429252,-108.54688)">
    <g
       transform="translate(146.70542,236.78486)"
       id="g1190">
      <g
         id="g1188">
        <path
           d="M 17.148438,-21 V -7.105469 L 6.824219,-21 H 2.066406 V 0 H 6.683594 V -13.929688 L 16.972656,0 h 4.761719 v -21 z m 0,0"
           id="path1186" />
      </g>
    </g>
  </g>
  <g
     fill="#ffffff"
     fill-opacity="1"
     id="g1198"
     transform="translate(-68.429252,-108.54688)">
    <g
       transform="translate(171.76911,236.78486)"
       id="g1196">
      <g
         id="g1194" />
    </g>
  </g>
  <g
     fill="#ffffff"
     fill-opacity="1"
     id="g1206"
     transform="translate(-68.429252,-108.54688)">
    <g
       transform="translate(181.39996,236.78486)"
       id="g1204">
      <g
         id="g1202">
        <path
           d="M 14.910156,0 H 19.84375 L 12.285156,-21 H 7.105469 L -0.453125,0 h 4.933594 l 1.292969,-3.953125 h 7.839843 z M 7,-7.804688 l 2.695312,-8.328124 2.695313,8.328124 z m 0,0"
           id="path1200" />
      </g>
    </g>
  </g>
  <g
     fill="#ffffff"
     fill-opacity="1"
     id="g1214"
     transform="translate(-68.429252,-108.54688)">
    <g
       transform="translate(202.01928,236.78486)"
       id="g1212">
      <g
         id="g1210">
        <path
           d="M 17.148438,-21 V -7.105469 L 6.824219,-21 H 2.066406 V 0 H 6.683594 V -13.929688 L 16.972656,0 h 4.761719 v -21 z m 0,0"
           id="path1208" />
      </g>
    </g>
  </g>
  <g
     fill="#ffffff"
     fill-opacity="1"
     id="g1222"
     transform="translate(-68.429252,-108.54688)">
    <g
       transform="translate(227.08298,236.78486)"
       id="g1220">
      <g
         id="g1218">
        <path
           d="m 2.066406,0 h 6.929688 c 5.773437,0 10.496094,-4.691406 10.496094,-10.5 0,-5.808594 -4.722657,-10.5 -10.496094,-10.5 H 2.066406 Z m 4.617188,-4.09375 v -12.808594 h 2.277344 c 3.324218,0 5.914062,2.761719 5.914062,6.402344 0,3.640625 -2.589844,6.40625 -5.914062,6.40625 z m 0,0"
           id="path1216" />
      </g>
    </g>
  </g>
  <g
     fill="#ffffff"
     fill-opacity="1"
     id="g1230"
     transform="translate(-68.429252,-108.54688)">
    <g
       transform="translate(249.10211,236.78486)"
       id="g1228">
      <g
         id="g1226">
        <path
           d="M 2.238281,0 H 6.859375 V -21 H 2.238281 Z m 0,0"
           id="path1224" />
      </g>
    </g>
  </g>
  <g
     fill="#ffffff"
     fill-opacity="1"
     id="g1238"
     transform="translate(-68.429252,-108.54688)">
    <g
       transform="translate(259.39786,236.78486)"
       id="g1236">
      <g
         id="g1234">
        <path
           d="M 17.148438,-21 V -7.105469 L 6.824219,-21 H 2.066406 V 0 H 6.683594 V -13.929688 L 16.972656,0 h 4.761719 v -21 z m 0,0"
           id="path1232" />
      </g>
    </g>
  </g>
  <g
     fill="#ffffff"
     fill-opacity="1"
     id="g1246"
     transform="translate(-68.429252,-108.54688)">
    <g
       transform="translate(284.46156,236.78486)"
       id="g1244">
      <g
         id="g1242">
        <path
           d="m 12.074219,0.28125 c 5.984375,0 10.777343,-4.832031 10.777343,-10.78125 0,-5.949219 -4.792968,-10.777344 -10.777343,-10.777344 -5.949219,0 -10.78125,4.828125 -10.78125,10.777344 0,5.949219 4.832031,10.78125 10.78125,10.78125 z m 0,-4.515625 c -3.535157,0 -6.230469,-2.730469 -6.230469,-6.265625 0,-3.535156 2.695312,-6.261719 6.230469,-6.261719 3.570312,0 6.265625,2.726563 6.265625,6.261719 0,3.535156 -2.695313,6.265625 -6.265625,6.265625 z m 0,0"
           id="path1240" />
      </g>
    </g>
  </g>
  <g
     fill="#ffffff"
     fill-opacity="1"
     id="g1254"
     transform="translate(-68.429252,-108.54688)">
    <g
       transform="translate(112.15826,263.17888)"
       id="g1252">
      <g
         id="g1250">
        <path
           d="M 6.089844,-8.070312 V -9 H 1.171875 V 0 H 2.128906 V -4.035156 H 5.578125 V -4.964844 H 2.128906 v -3.105468 z m 0,0"
           id="path1248" />
      </g>
    </g>
  </g>
  <g
     fill="#ffffff"
     fill-opacity="1"
     id="g1262"
     transform="translate(-68.429252,-108.54688)">
    <g
       transform="translate(122.53833,263.17888)"
       id="g1260">
      <g
         id="g1258">
        <path
           d="m 4.425781,0.121094 c 1.964844,0 3.390625,-1.304688 3.390625,-3.074219 V -9 H 6.855469 v 5.894531 c 0,1.304688 -1.035157,2.265625 -2.429688,2.265625 -1.394531,0 -2.414062,-0.960937 -2.414062,-2.265625 V -9 H 1.050781 v 6.046875 c 0,1.769531 1.425781,3.074219 3.375,3.074219 z m 0,0"
           id="path1256" />
      </g>
    </g>
  </g>
  <g
     fill="#ffffff"
     fill-opacity="1"
     id="g1270"
     transform="translate(-68.429252,-108.54688)">
    <g
       transform="translate(135.4234,263.17888)"
       id="g1268">
      <g
         id="g1266">
        <path
           d="M 2.054688,-0.960938 V -9 H 1.09375 v 9 h 4.304688 v -0.960938 z m 0,0"
           id="path1264" />
      </g>
    </g>
  </g>
  <g
     fill="#ffffff"
     fill-opacity="1"
     id="g1278"
     transform="translate(-68.429252,-108.54688)">
    <g
       transform="translate(144.97846,263.17888)"
       id="g1276">
      <g
         id="g1274">
        <path
           d="M 2.054688,-0.960938 V -9 H 1.09375 v 9 h 4.304688 v -0.960938 z m 0,0"
           id="path1272" />
      </g>
    </g>
  </g>
  <g
     fill="#ffffff"
     fill-opacity="1"
     id="g1284"
     transform="translate(-68.429252,-108.54688)">
    <g
       transform="translate(154.53353,263.17888)"
       id="g1282">
      <g
         id="g1280" />
    </g>
  </g>
  <g
     fill="#ffffff"
     fill-opacity="1"
     id="g1292"
     transform="translate(-68.429252,-108.54688)">
    <g
       transform="translate(162.1686,263.17888)"
       id="g1290">
      <g
         id="g1288">
        <path
           d="m 3.359375,0.121094 c 1.53125,0 2.777344,-0.917969 2.777344,-2.492188 0,-3.058594 -4.382813,-2.308594 -4.382813,-4.453125 0,-0.902343 0.734375,-1.335937 1.574219,-1.335937 0.691406,0 1.261719,0.285156 1.621094,0.796875 l 0.75,-0.632813 c -0.496094,-0.628906 -1.363281,-1.125 -2.398438,-1.125 -1.378906,0 -2.503906,0.902344 -2.503906,2.371094 0,2.894531 4.378906,2.175781 4.378906,4.410156 0,0.960938 -0.796875,1.5 -1.800781,1.5 -1.019531,0 -1.753906,-0.554687 -2.070312,-1.378906 l -0.871094,0.507812 c 0.464844,1.109376 1.589844,1.832032 2.925781,1.832032 z m 0,0"
           id="path1286" />
      </g>
    </g>
  </g>
  <g
     fill="#ffffff"
     fill-opacity="1"
     id="g1300"
     transform="translate(-68.429252,-108.54688)">
    <g
       transform="translate(172.75867,263.17888)"
       id="g1298">
      <g
         id="g1296">
        <path
           d="m 6.074219,-9 h -5.9375 v 0.960938 H 2.625 V 0 h 0.960938 v -8.039062 h 2.488281 z m 0,0"
           id="path1294" />
      </g>
    </g>
  </g>
  <g
     fill="#ffffff"
     fill-opacity="1"
     id="g1308"
     transform="translate(-68.429252,-108.54688)">
    <g
       transform="translate(182.98874,263.17888)"
       id="g1306">
      <g
         id="g1304">
        <path
           d="M 6.523438,0 H 7.574219 L 4.320312,-9 H 3.253906 L 0,0 h 1.050781 l 0.734375,-2.101562 h 4.003906 z m -4.421876,-3.015625 1.695313,-4.84375 1.679687,4.84375 z m 0,0"
           id="path1302" />
      </g>
    </g>
  </g>
  <g
     fill="#ffffff"
     fill-opacity="1"
     id="g1316"
     transform="translate(-68.429252,-108.54688)">
    <g
       transform="translate(194.58381,263.17888)"
       id="g1314">
      <g
         id="g1312">
        <path
           d="m 5.355469,0.121094 c 1.722656,0 3.222656,-0.945313 4.019531,-2.339844 L 8.550781,-2.683594 c -0.617187,1.109375 -1.816406,1.84375 -3.195312,1.84375 -2.027344,0 -3.660157,-1.621094 -3.660157,-3.660156 0,-2.039062 1.632813,-3.660156 3.660157,-3.660156 1.378906,0 2.578125,0.734375 3.195312,1.84375 L 9.375,-6.78125 C 8.578125,-8.175781 7.078125,-9.121094 5.355469,-9.121094 c -2.550781,0 -4.621094,2.070313 -4.621094,4.621094 0,2.550781 2.070313,4.621094 4.621094,4.621094 z m 0,0"
           id="path1310" />
      </g>
    </g>
  </g>
  <g
     fill="#ffffff"
     fill-opacity="1"
     id="g1324"
     transform="translate(-68.429252,-108.54688)">
    <g
       transform="translate(208.47388,263.17888)"
       id="g1322">
      <g
         id="g1320">
        <path
           d="M 6.464844,0 H 7.800781 L 3.523438,-4.84375 7.636719,-9 H 6.300781 L 2.683594,-5.308594 H 2.054688 V -9 H 1.09375 v 9 h 0.960938 v -4.410156 h 0.644531 z m 0,0"
           id="path1318" />
      </g>
    </g>
  </g>
  <g
     fill="#ffffff"
     fill-opacity="1"
     id="g1330"
     transform="translate(-68.429252,-108.54688)">
    <g
       transform="translate(220.18894,263.17888)"
       id="g1328">
      <g
         id="g1326" />
    </g>
  </g>
  <g
     fill="#ffffff"
     fill-opacity="1"
     id="g1338"
     transform="translate(-68.429252,-108.54688)">
    <g
       transform="translate(227.824,263.17888)"
       id="g1336">
      <g
         id="g1334">
        <path
           d="M 11.234375,-9 8.925781,-1.605469 6.734375,-9 H 5.386719 L 3.226562,-1.621094 0.929688,-9 H -0.0898438 L 2.730469,0 H 3.75 L 6.058594,-7.980469 8.414062,0 h 1.007813 l 2.804687,-9 z m 0,0"
           id="path1332" />
      </g>
    </g>
  </g>
  <g
     fill="#ffffff"
     fill-opacity="1"
     id="g1346"
     transform="translate(-68.429252,-108.54688)">
    <g
       transform="translate(243.97906,263.17888)"
       id="g1344">
      <g
         id="g1342">
        <path
           d="M 6.089844,-8.070312 V -9 H 1.171875 V 0 H 6.089844 V -0.929688 H 2.128906 V -4.035156 H 5.578125 V -4.964844 H 2.128906 v -3.105468 z m 0,0"
           id="path1340" />
      </g>
    </g>
  </g>
  <g
     fill="#ffffff"
     fill-opacity="1"
     id="g1354"
     transform="translate(-68.429252,-108.54688)">
    <g
       transform="translate(254.98912,263.17888)"
       id="g1352">
      <g
         id="g1350">
        <path
           d="M 5.535156,-4.558594 C 6.328125,-4.921875 6.855469,-5.640625 6.855469,-6.601562 6.855469,-8.011719 5.746094,-9 4.363281,-9 H 1.09375 v 9 h 3.585938 c 1.367187,0 2.460937,-0.976562 2.460937,-2.371094 0,-1.09375 -0.660156,-1.875 -1.605469,-2.1875 z m 0.359375,-1.964844 c 0,0.882813 -0.734375,1.558594 -1.632812,1.558594 H 2.039062 v -3.074218 h 2.222657 c 0.898437,0 1.632812,0.628906 1.632812,1.515624 z m -1.335937,5.5625 H 2.039062 v -3.074218 h 2.519532 c 0.886718,0 1.621094,0.675781 1.621094,1.558594 0,0.886718 -0.734376,1.515624 -1.621094,1.515624 z m 0,0"
           id="path1348" />
      </g>
    </g>
  </g>
  <g
     fill="#ffffff"
     fill-opacity="1"
     id="g1362"
     transform="translate(-68.429252,-108.54688)">
    <g
       transform="translate(137.31841,279.67888)"
       id="g1360">
      <g
         id="g1358">
        <path
           d="m 1.09375,0 h 2.460938 c 2.476562,0 4.5,-2.011719 4.5,-4.5 0,-2.488281 -2.023438,-4.5 -4.5,-4.5 H 1.09375 Z m 0.945312,-0.960938 v -7.078124 h 1.5 c 1.996094,0 3.554688,1.515624 3.554688,3.539062 0,2.023438 -1.558594,3.539062 -3.554688,3.539062 z m 0,0"
           id="path1356" />
      </g>
    </g>
  </g>
  <g
     fill="#ffffff"
     fill-opacity="1"
     id="g1370"
     transform="translate(-68.429252,-108.54688)">
    <g
       transform="translate(150.12847,279.67888)"
       id="g1368">
      <g
         id="g1366">
        <path
           d="M 6.089844,-8.070312 V -9 H 1.171875 V 0 H 6.089844 V -0.929688 H 2.128906 V -4.035156 H 5.578125 V -4.964844 H 2.128906 v -3.105468 z m 0,0"
           id="path1364" />
      </g>
    </g>
  </g>
  <g
     fill="#ffffff"
     fill-opacity="1"
     id="g1378"
     transform="translate(-68.429252,-108.54688)">
    <g
       transform="translate(161.13854,279.67888)"
       id="g1376">
      <g
         id="g1374">
        <path
           d="M 6.523438,-9 3.796875,-1.230469 1.066406,-9 H 0 l 3.253906,9 h 1.066406 l 3.253907,-9 z m 0,0"
           id="path1372" />
      </g>
    </g>
  </g>
  <g
     fill="#ffffff"
     fill-opacity="1"
     id="g1386"
     transform="translate(-68.429252,-108.54688)">
    <g
       transform="translate(172.73361,279.67888)"
       id="g1384">
      <g
         id="g1382">
        <path
           d="M 6.089844,-8.070312 V -9 H 1.171875 V 0 H 6.089844 V -0.929688 H 2.128906 V -4.035156 H 5.578125 V -4.964844 H 2.128906 v -3.105468 z m 0,0"
           id="path1380" />
      </g>
    </g>
  </g>
  <g
     fill="#ffffff"
     fill-opacity="1"
     id="g1394"
     transform="translate(-68.429252,-108.54688)">
    <g
       transform="translate(183.74368,279.67888)"
       id="g1392">
      <g
         id="g1390">
        <path
           d="M 2.054688,-0.960938 V -9 H 1.09375 v 9 h 4.304688 v -0.960938 z m 0,0"
           id="path1388" />
      </g>
    </g>
  </g>
  <g
     fill="#ffffff"
     fill-opacity="1"
     id="g1402"
     transform="translate(-68.429252,-108.54688)">
    <g
       transform="translate(193.29874,279.67888)"
       id="g1400">
      <g
         id="g1398">
        <path
           d="m 5.355469,0.121094 c 2.566406,0 4.621093,-2.070313 4.621093,-4.621094 0,-2.550781 -2.054687,-4.621094 -4.621093,-4.621094 -2.550781,0 -4.621094,2.070313 -4.621094,4.621094 0,2.550781 2.070313,4.621094 4.621094,4.621094 z m 0,-0.960938 c -2.027344,0 -3.660157,-1.621094 -3.660157,-3.660156 0,-2.039062 1.632813,-3.660156 3.660157,-3.660156 2.039062,0 3.660156,1.621094 3.660156,3.660156 0,2.039062 -1.621094,3.660156 -3.660156,3.660156 z m 0,0"
           id="path1396" />
      </g>
    </g>
  </g>
  <g
     fill="#ffffff"
     fill-opacity="1"
     id="g1410"
     transform="translate(-68.429252,-108.54688)">
    <g
       transform="translate(208.04381,279.67888)"
       id="g1408">
      <g
         id="g1406">
        <path
           d="M 4.320312,-9 H 1.09375 v 9 h 0.960938 v -4.003906 h 2.265624 c 1.394532,0 2.503907,-1.097656 2.503907,-2.492188 C 6.824219,-7.875 5.714844,-9 4.320312,-9 Z M 4.230469,-4.921875 H 2.054688 v -3.148437 h 2.175781 c 0.898437,0 1.632812,0.628906 1.632812,1.589843 0,0.992188 -0.734375,1.558594 -1.632812,1.558594 z m 0,0"
           id="path1404" />
      </g>
    </g>
  </g>
  <g
     fill="#ffffff"
     fill-opacity="1"
     id="g1418"
     transform="translate(-68.429252,-108.54688)">
    <g
       transform="translate(219.14387,279.67888)"
       id="g1416">
      <g
         id="g1414">
        <path
           d="M 6.089844,-8.070312 V -9 H 1.171875 V 0 H 6.089844 V -0.929688 H 2.128906 V -4.035156 H 5.578125 V -4.964844 H 2.128906 v -3.105468 z m 0,0"
           id="path1412" />
      </g>
    </g>
  </g>
  <g
     fill="#ffffff"
     fill-opacity="1"
     id="g1426"
     transform="translate(-68.429252,-108.54688)">
    <g
       transform="translate(230.15394,279.67888)"
       id="g1424">
      <g
         id="g1422">
        <path
           d="m 4.738281,-4.109375 c 1.1875,-0.164063 2.085938,-1.15625 2.085938,-2.371094 C 6.824219,-7.890625 5.699219,-9 4.320312,-9 H 1.09375 V 0 H 2.054688 V -4.066406 H 3.75 L 6.300781,0 h 1.09375 z M 2.054688,-4.980469 v -3.058593 h 2.207031 c 0.898437,0 1.601562,0.628906 1.601562,1.527343 0,0.917969 -0.6875,1.53125 -1.601562,1.53125 z m 0,0"
           id="path1420" />
      </g>
    </g>
  </g>
</svg>
